<svg width="28" height="28" viewBox="0 0 29 28" fill="none" xmlns="http://www.w3.org/2000/svg">
<path d="M23.833 8.04163V5.45829H21.2497V2.87496H23.833V0.291626H26.4163V2.87496H28.9997V5.45829H26.4163V8.04163H23.833ZM18.0205 13.2083C18.5587 13.2083 19.016 13.0197 19.3923 12.6425C19.7694 12.2662 19.958 11.809 19.958 11.2708C19.958 10.7326 19.7694 10.2753 19.3923 9.89904C19.016 9.52188 18.5587 9.33329 18.0205 9.33329C17.4823 9.33329 17.0251 9.52188 16.6488 9.89904C16.2716 10.2753 16.083 10.7326 16.083 11.2708C16.083 11.809 16.2716 12.2662 16.6488 12.6425C17.0251 13.0197 17.4823 13.2083 18.0205 13.2083ZM8.97884 13.2083C9.51704 13.2083 9.97429 13.0197 10.3506 12.6425C10.7278 12.2662 10.9163 11.809 10.9163 11.2708C10.9163 10.7326 10.7278 10.2753 10.3506 9.89904C9.97429 9.52188 9.51704 9.33329 8.97884 9.33329C8.44065 9.33329 7.9834 9.52188 7.60709 9.89904C7.22992 10.2753 7.04134 10.7326 7.04134 11.2708C7.04134 11.809 7.22992 12.2662 7.60709 12.6425C7.9834 13.0197 8.44065 13.2083 8.97884 13.2083ZM13.4997 21.6041C14.9636 21.6041 16.2931 21.1899 17.4883 20.3615C18.6827 19.5323 19.549 18.4395 20.0872 17.0833H6.91217C7.45037 18.4395 8.31708 19.5323 9.5123 20.3615C10.7067 21.1899 12.0358 21.6041 13.4997 21.6041ZM13.4997 27.4166C11.7129 27.4166 10.0337 27.0773 8.46217 26.3988C6.89065 25.7211 5.52363 24.801 4.36113 23.6385C3.19863 22.476 2.27854 21.109 1.60084 19.5375C0.922286 17.9659 0.583008 16.2868 0.583008 14.5C0.583008 12.7132 0.922286 11.034 1.60084 9.46246C2.27854 7.89093 3.19863 6.52392 4.36113 5.36142C5.52363 4.19892 6.89065 3.27839 8.46217 2.59983C10.0337 1.92214 11.7129 1.58329 13.4997 1.58329C14.4254 1.58329 15.3188 1.67457 16.1799 1.85713C17.041 2.04054 17.8698 2.30447 18.6663 2.64892V8.04163H21.2497V10.625H25.8351C26.0288 11.2493 26.1744 11.8787 26.2717 12.5134C26.3681 13.1489 26.4163 13.8111 26.4163 14.5C26.4163 16.2868 26.0771 17.9659 25.3985 19.5375C24.7208 21.109 23.8007 22.476 22.6382 23.6385C21.4757 24.801 20.1087 25.7211 18.5372 26.3988C16.9656 27.0773 15.2865 27.4166 13.4997 27.4166Z" fill="white"/>
</svg>