<svg width="30" height="34" viewBox="0 0 30 34" fill="none" xmlns="http://www.w3.org/2000/svg">
<path d="M0.333374 20.6667C0.333374 23.3556 0.990318 25.8073 2.30421 28.022C3.6181 30.2379 5.34449 31.9875 7.48337 33.2708C6.96393 32.5375 6.55937 31.7351 6.26971 30.8637C5.97882 29.9934 5.83337 29.0694 5.83337 28.0917C5.83337 26.8694 6.06254 25.7236 6.52087 24.6542C6.97921 23.5847 7.65143 22.6069 8.53754 21.7208L15 15.35L21.5084 21.7208C22.3639 22.5764 23.0209 23.5468 23.4792 24.6322C23.9375 25.7163 24.1667 26.8694 24.1667 28.0917C24.1667 29.0694 24.0219 29.9934 23.7322 30.8637C23.4413 31.7351 23.0362 32.5375 22.5167 33.2708C24.6556 31.9875 26.382 30.2379 27.6959 28.022C29.0098 25.8073 29.6667 23.3556 29.6667 20.6667C29.6667 17.9472 28.9945 15.449 27.65 13.172C26.3056 10.8962 24.5334 9.11667 22.3334 7.83333L21.5084 8.84167C21.1112 9.33056 20.676 9.68194 20.203 9.89583C19.7288 10.1097 19.232 10.2167 18.7125 10.2167C17.7653 10.2167 16.9098 9.88789 16.1459 9.23033C15.382 8.574 15 7.68056 15 6.55V0.5L12.7084 1.85117C11.1806 2.75317 9.50004 4.05972 7.66671 5.77083C5.83337 7.48194 4.15282 9.59028 2.62504 12.0958C1.09726 14.6014 0.333374 17.4583 0.333374 20.6667ZM15 20.4833L11.1042 24.2875C10.5848 24.8069 10.1875 25.3954 9.91254 26.053C9.63754 26.7093 9.50004 27.3889 9.50004 28.0917C9.50004 29.5889 10.0348 30.8643 11.1042 31.9178C12.1737 32.9726 13.4723 33.5 15 33.5C16.5278 33.5 17.8264 32.9726 18.8959 31.9178C19.9653 30.8643 20.5 29.5889 20.5 28.0917C20.5 27.3583 20.3625 26.6708 20.0875 26.0292C19.8125 25.3875 19.4153 24.8069 18.8959 24.2875L15 20.4833Z" fill="#F3921F"/>
</svg>