<svg width="38" height="38" viewBox="0 0 38 38" fill="none" xmlns="http://www.w3.org/2000/svg">
<path d="M25.4165 17.1667C26.1804 17.1667 26.8294 16.8991 27.3635 16.3637C27.8988 15.8296 28.1665 15.1806 28.1665 14.4167C28.1665 13.6529 27.8988 13.0039 27.3635 12.4697C26.8294 11.9344 26.1804 11.6667 25.4165 11.6667C24.6526 11.6667 24.0036 11.9344 23.4695 12.4697C22.9342 13.0039 22.6665 13.6529 22.6665 14.4167C22.6665 15.1806 22.9342 15.8296 23.4695 16.3637C24.0036 16.8991 24.6526 17.1667 25.4165 17.1667ZM12.5832 17.1667C13.3471 17.1667 13.9961 16.8991 14.5302 16.3637C15.0655 15.8296 15.3332 15.1806 15.3332 14.4167C15.3332 13.6529 15.0655 13.0039 14.5302 12.4697C13.9961 11.9344 13.3471 11.6667 12.5832 11.6667C11.8193 11.6667 11.1703 11.9344 10.6362 12.4697C10.1008 13.0039 9.83317 13.6529 9.83317 14.4167C9.83317 15.1806 10.1008 15.8296 10.6362 16.3637C11.1703 16.8991 11.8193 17.1667 12.5832 17.1667ZM18.9998 29.0834C21.0776 29.0834 22.9647 28.4955 24.6612 27.3197C26.3564 26.1427 27.586 24.5917 28.3498 22.6667H25.3248C24.6526 23.7973 23.7592 24.6907 22.6445 25.3471C21.5286 26.0046 20.3137 26.3334 18.9998 26.3334C17.686 26.3334 16.4711 26.0046 15.3552 25.3471C14.2405 24.6907 13.3471 23.7973 12.6748 22.6667H9.64984C10.4137 24.5917 11.6439 26.1427 13.3403 27.3197C15.0356 28.4955 16.9221 29.0834 18.9998 29.0834ZM18.9998 37.3334C16.4637 37.3334 14.0804 36.8519 11.8498 35.8887C9.61928 34.9269 7.67901 33.6209 6.02901 31.9709C4.37901 30.3209 3.07306 28.3806 2.11117 26.1501C1.14806 23.9195 0.666504 21.5362 0.666504 19.0001C0.666504 16.464 1.14806 14.0806 2.11117 11.8501C3.07306 9.61953 4.37901 7.67925 6.02901 6.02925C7.67901 4.37925 9.61928 3.07269 11.8498 2.10958C14.0804 1.14769 16.4637 0.666748 18.9998 0.666748C21.536 0.666748 23.9193 1.14769 26.1498 2.10958C28.3804 3.07269 30.3207 4.37925 31.9707 6.02925C33.6207 7.67925 34.9266 9.61953 35.8885 11.8501C36.8516 14.0806 37.3332 16.464 37.3332 19.0001C37.3332 21.5362 36.8516 23.9195 35.8885 26.1501C34.9266 28.3806 33.6207 30.3209 31.9707 31.9709C30.3207 33.6209 28.3804 34.9269 26.1498 35.8887C23.9193 36.8519 21.536 37.3334 18.9998 37.3334Z" fill="#00A5C9"/>
</svg>