<svg width="38" height="35" viewBox="0 0 38 35" fill="none" xmlns="http://www.w3.org/2000/svg">
<path d="M18.9993 34.4999L16.341 32.1166C13.2549 29.3361 10.7035 26.9374 8.68685 24.9208C6.67018 22.9041 5.06602 21.0934 3.87435 19.4886C2.68268 17.8851 1.85035 16.4111 1.37735 15.0666C0.903127 13.7222 0.666016 12.3472 0.666016 10.9416C0.666016 8.06939 1.62852 5.67078 3.55352 3.74578C5.47852 1.82078 7.87713 0.858276 10.7493 0.858276C12.3382 0.858276 13.8507 1.19439 15.2868 1.86661C16.723 2.53883 17.9605 3.48605 18.9993 4.70828C20.0382 3.48605 21.2757 2.53883 22.7118 1.86661C24.148 1.19439 25.6605 0.858276 27.2493 0.858276C30.1216 0.858276 32.5202 1.82078 34.4452 3.74578C36.3702 5.67078 37.3327 8.06939 37.3327 10.9416C37.3327 12.3472 37.0962 13.7222 36.6232 15.0666C36.149 16.4111 35.316 17.8851 34.1243 19.4886C32.9327 21.0934 31.3285 22.9041 29.3118 24.9208C27.2952 26.9374 24.7438 29.3361 21.6577 32.1166L18.9993 34.4999Z" fill="#FF5959"/>
</svg>