<svg width="28" height="38" viewBox="0 0 28 38" fill="none" xmlns="http://www.w3.org/2000/svg">
<path d="M13.9998 37.3334C13.2054 37.3334 12.4873 37.1427 11.8456 36.7614C11.204 36.3788 10.6998 35.8667 10.3331 35.225C9.3248 35.225 8.46191 34.8663 7.74446 34.1489C7.0258 33.4302 6.66646 32.5667 6.66646 31.5584V25.05C4.86369 23.8584 3.42024 22.2847 2.33613 20.3292C1.2508 18.3736 0.70813 16.25 0.70813 13.9584C0.70813 10.2611 1.9988 7.12124 4.58013 4.53869C7.16269 1.95735 10.3026 0.666687 13.9998 0.666687C17.697 0.666687 20.8363 1.95735 23.4176 4.53869C26.0002 7.12124 27.2915 10.2611 27.2915 13.9584C27.2915 16.3111 26.7494 18.45 25.6653 20.375C24.58 22.3 23.1359 23.8584 21.3331 25.05V31.5584C21.3331 32.5667 20.9744 33.4302 20.257 34.1489C19.5383 34.8663 18.6748 35.225 17.6665 35.225C17.2998 35.8667 16.7956 36.3788 16.154 36.7614C15.5123 37.1427 14.7942 37.3334 13.9998 37.3334ZM10.3331 31.5584H17.6665V29.9084H10.3331V31.5584ZM10.3331 28.075H17.6665V26.3334H10.3331V28.075ZM15.3748 22.6667V17.7167L19.4081 13.6834L17.4831 11.7584L13.9998 15.2417L10.5165 11.7584L8.59146 13.6834L12.6248 17.7167V22.6667H15.3748Z" fill="#BBAC28"/>
</svg>