<svg width="38" height="38" viewBox="0 0 38 38" fill="none" xmlns="http://www.w3.org/2000/svg">
<path d="M8.00008 37.3333V29.5416C6.80841 29.0222 5.76219 28.3274 4.86141 27.4571C3.95941 26.5857 3.19553 25.6 2.56975 24.5C1.94275 23.4 1.46914 22.2236 1.14891 20.9708C0.82747 19.718 0.666748 18.45 0.666748 17.1666C0.666748 12.3388 2.37786 8.3819 5.80008 5.29579C9.2223 2.20968 13.6223 0.666626 19.0001 0.666626C24.3779 0.666626 28.7779 2.20968 32.2001 5.29579C35.6223 8.3819 37.3334 12.3388 37.3334 17.1666C37.3334 18.45 37.1733 19.718 36.8531 20.9708C36.5316 22.2236 36.058 23.4 35.4322 24.5C34.8052 25.6 34.0414 26.5857 33.1406 27.4571C32.2386 28.3274 31.1917 29.0222 30.0001 29.5416V37.3333H8.00008ZM11.6667 33.6666H13.5001V37.3333H17.1667V33.6666H20.8334V37.3333H24.5001V33.6666H26.3334V27.1583C27.4945 26.8833 28.5261 26.425 29.4281 25.7833C30.3289 25.1416 31.0927 24.3777 31.7197 23.4916C32.3455 22.6055 32.8265 21.6277 33.1626 20.5583C33.4987 19.4888 33.6667 18.3583 33.6667 17.1666C33.6667 13.3472 32.315 10.2537 29.6114 7.88629C26.9066 5.51763 23.3695 4.33329 19.0001 4.33329C14.6306 4.33329 11.0941 5.51763 8.39058 7.88629C5.6858 10.2537 4.33341 13.3472 4.33341 17.1666C4.33341 18.3583 4.50147 19.4888 4.83758 20.5583C5.17369 21.6277 5.65464 22.6055 6.28041 23.4916C6.90741 24.3777 7.67925 25.1416 8.59591 25.7833C9.51258 26.425 10.5362 26.8833 11.6667 27.1583V33.6666ZM16.2501 25.875H21.7501L19.0001 20.375L16.2501 25.875ZM12.5834 20.8333C13.5917 20.8333 14.4552 20.474 15.1739 19.7553C15.8914 19.0378 16.2501 18.175 16.2501 17.1666C16.2501 16.1583 15.8914 15.2948 15.1739 14.5761C14.4552 13.8587 13.5917 13.5 12.5834 13.5C11.5751 13.5 10.7122 13.8587 9.99475 14.5761C9.27608 15.2948 8.91675 16.1583 8.91675 17.1666C8.91675 18.175 9.27608 19.0378 9.99475 19.7553C10.7122 20.474 11.5751 20.8333 12.5834 20.8333ZM25.4167 20.8333C26.4251 20.8333 27.2886 20.474 28.0072 19.7553C28.7247 19.0378 29.0834 18.175 29.0834 17.1666C29.0834 16.1583 28.7247 15.2948 28.0072 14.5761C27.2886 13.8587 26.4251 13.5 25.4167 13.5C24.4084 13.5 23.5455 13.8587 22.8281 14.5761C22.1094 15.2948 21.7501 16.1583 21.7501 17.1666C21.7501 18.175 22.1094 19.0378 22.8281 19.7553C23.5455 20.474 24.4084 20.8333 25.4167 20.8333ZM11.6667 33.6666V27.1583C10.5362 26.8833 9.51258 26.425 8.59591 25.7833C7.67925 25.1416 6.90741 24.3777 6.28041 23.4916C5.65464 22.6055 5.17369 21.6277 4.83758 20.5583C4.50147 19.4888 4.33341 18.3583 4.33341 17.1666C4.33341 13.3472 5.6858 10.2537 8.39058 7.88629C11.0941 5.51763 14.6306 4.33329 19.0001 4.33329C23.3695 4.33329 26.9066 5.51763 29.6114 7.88629C32.315 10.2537 33.6667 13.3472 33.6667 17.1666C33.6667 18.3583 33.4987 19.4888 33.1626 20.5583C32.8265 21.6277 32.3455 22.6055 31.7197 23.4916C31.0927 24.3777 30.3289 25.1416 29.4281 25.7833C28.5261 26.425 27.4945 26.8833 26.3334 27.1583V33.6666H13.5001H11.6667Z" fill="#A2A2A2"/>
</svg>