<svg width="34" height="32" viewBox="0 0 34 32" fill="none" xmlns="http://www.w3.org/2000/svg">
<path d="M8.09524 0H24.2857V20.8L12.9524 32L10.9286 30C10.7397 29.8133 10.5848 29.56 10.4639 29.24C10.3419 28.92 10.281 28.6133 10.281 28.32V27.76L12.0619 20.8H3.2381C2.3746 20.8 1.61905 20.48 0.971429 19.84C0.32381 19.2 0 18.4533 0 17.6V14.4C0 14.2133 0.0205079 14.0133 0.0615238 13.8C0.10146 13.5867 0.161905 13.3867 0.242857 13.2L5.1 1.92C5.34286 1.38667 5.74762 0.933333 6.31429 0.56C6.88095 0.186667 7.4746 0 8.09524 0ZM27.5238 20.8V0H34V20.8H27.5238Z" fill="#AB1010"/>
</svg>