<svg width="34" height="32" viewBox="0 0 34 32" fill="none" xmlns="http://www.w3.org/2000/svg">
<path d="M25.9048 32H9.71429V11.2L21.0476 0L23.0714 2C23.2603 2.18667 23.4157 2.44 23.5377 2.76C23.6586 3.08 23.719 3.38667 23.719 3.68V4.24L21.9381 11.2H30.7619C31.6254 11.2 32.381 11.52 33.0286 12.16C33.6762 12.8 34 13.5467 34 14.4V17.6C34 17.7867 33.9795 17.9867 33.9385 18.2C33.8985 18.4133 33.8381 18.6133 33.7571 18.8L28.9 30.08C28.6571 30.6133 28.2524 31.0667 27.6857 31.44C27.119 31.8133 26.5254 32 25.9048 32ZM6.47619 11.2V32H0V11.2H6.47619Z" fill="#5EE684"/>
</svg>